<?xml version="1.0" encoding="UTF-8"?>
<svg width="64px" height="64px" viewBox="0 0 64 64" version="1.1" xmlns="http://www.w3.org/2000/svg" xmlns:xlink="http://www.w3.org/1999/xlink">

    <title>03 Icon/64/Bell</title>
    
    <g id="03-Icon/64/Bell" stroke="none" stroke-width="1" fill="none" fill-rule="evenodd">
        <path d="M47.3246366,55.560314 C47.6179429,56.0556259 47.5797729,56.6918802 47.2161535,57.1529633 C46.8726235,57.6080059 46.2779752,57.821433 45.7014074,57.6704233 L32.0204779,53.9978667 L20.101395,50.7984739 L8.07182005,47.5708927 C7.43900173,47.3977349 7.00105127,46.8218844 7.00897828,46.1675089 L7.00897828,46.1554282 C7.00707811,45.646022 7.28029491,45.1728582 7.732308,44.9171484 C12.704452,42.0258155 16.2723419,37.3706889 17.7790522,31.8054771 L20.101395,23.1012764 C21.7105616,17.0326988 26.9961013,12.8124803 33.2559804,12.584959 C33.7160292,12.607107 38.1075875,12.8507361 40.7111829,14.3427122 L40.7091739,14.3487526 L41.3379744,14.7454048 C46.6415946,18.0796996 49.1186263,24.3939197 47.499415,30.4584703 L45.1770722,39.162671 C44.6888981,40.9929089 44.4397886,42.8734834 44.4397886,44.7600983 C44.4417976,48.5393684 45.4382353,52.2683019 47.3246366,55.560314 L47.3246366,55.560314 Z M26.8615019,57.986537 L26.857484,57.986537 C25.3588095,57.986537 23.9304481,57.3442423 22.9380283,56.2227433 C22.2107894,55.4012504 21.77083,54.3743843 21.6543111,53.3012085 L31.0722549,55.8281046 C30.0979156,57.1569902 28.5510263,57.98251 26.8615019,57.986537 L26.8615019,57.986537 Z M35.0801043,8.58823482 C35.319169,7.69224377 35.8937278,6.94323552 36.6932888,6.48013902 C37.2276687,6.17207918 37.8182991,6.0130156 38.4169653,6.0130156 C38.7203163,6.0130156 39.0216584,6.05328486 39.3230005,6.13382338 C41.1652049,6.62712183 42.26209,8.53588479 41.767889,10.3822304 L41.2435539,12.3534107 C39.0196495,11.246006 36.1468552,10.8191519 34.5256349,10.6621018 L35.0801043,8.58823482 Z M49.4420668,30.9779438 C51.2219939,24.2992869 48.6525506,17.350826 43.0274988,13.4507481 L43.7105408,10.9017039 C44.4900123,7.98218245 42.756291,4.97004175 39.8413088,4.18680463 C38.431028,3.8123005 36.9584698,4.00357949 35.6888152,4.73648004 C34.4231786,5.46736712 33.5191524,6.65128338 33.1374525,8.06473443 L32.4584284,10.6137786 C25.6300173,11.1594271 19.9366614,15.8910653 18.1587432,22.5818029 L15.8384094,31.2819767 C14.4703164,36.3277151 11.2359117,40.5519605 6.73185236,43.1714759 C5.66309253,43.7775283 5,44.9211753 5,46.1534147 C4.98607737,47.7219024 6.03273879,49.1051515 7.55150276,49.515898 L19.5830867,52.7454927 L19.607194,52.7495196 C19.6112119,54.5133132 20.2560839,56.2287837 21.4353359,57.5596828 C22.8114646,59.1120628 24.7862596,60 26.8594929,60 L26.8675287,60 C29.4691152,59.9919461 31.8376637,58.5966163 33.1274077,56.3797935 L33.8908076,56.5851667 L33.8908076,56.5831532 L45.185108,59.617442 C46.5290936,59.9758384 47.9895981,59.4624054 48.8072395,58.3831892 C49.6690778,57.2818249 49.7675162,55.7334718 49.0583579,54.5435152 C47.3547708,51.5716437 46.4507446,48.1870124 46.4487357,44.7600983 C46.4487357,43.0506682 46.6757467,41.341238 47.117715,39.6821445 L49.4420668,30.9779438 Z" id="Fill-10" fill="#04246A"></path>
        <path d="M49.4971045,15.2668734 C49.803623,14.8126004 50.4973227,14.74317 50.9671833,15.0486636 C51.2575692,15.241085 51.8322914,16.0147378 51.8564902,16.0484611 C51.8625399,16.056396 52.0178157,16.2726221 52.0238654,16.280557 C52.5703556,17.0601609 53.0341665,17.9290325 53.4072318,18.8633671 C54.6514548,21.9917016 54.7542999,25.4929765 53.7117337,29.2680054 C53.588723,29.7103761 53.1833926,30 52.7377308,30 C52.653035,30 52.5643059,29.9880976 52.4755769,29.9642929 C51.937153,29.8214647 51.6205516,29.2779241 51.7657446,28.7482694 C52.6933663,25.3937902 52.6127036,22.3090976 51.5277894,19.5874268 C51.1345585,18.5975479 50.6767973,17.853651 50.3622126,17.4033454 L50.3622126,17.4033454 L51.0700283,16.6713508 L50.2170196,17.2029891 C49.9528491,16.8439349 49.7511922,16.6316763 49.7048111,16.5840669 C49.2410002,16.280557 49.1885694,15.7231302 49.4971045,15.2668734 Z M55.075136,17.2119159 C55.5328971,16.908406 56.1640832,17.0274295 56.4746349,17.4817025 C56.5593308,17.6046935 58.5496844,20.5842486 57.8519515,25.9760136 C57.7854047,26.4759123 57.353859,26.8429014 56.8517333,26.8429014 C56.8093853,26.8429014 56.7670374,26.8409177 56.7226729,26.8349665 C56.1721495,26.7655362 55.7789186,26.2696049 55.8494985,25.7240805 C56.3496076,21.8597839 55.2626769,19.2630877 54.8008826,18.5906049 C54.490331,18.1363318 54.6113251,17.5193933 55.075136,17.2119159 Z M22.7509465,7.59937901 C23.2792876,7.4724206 23.8398937,7.78981662 23.9729873,8.32145496 C24.1080974,8.85309329 23.7793967,9.39266653 23.2389562,9.52557612 L23.2389562,9.52557612 C23.2571053,9.52557612 22.9828519,9.634681 22.5775215,9.85090704 C22.5452564,9.86876056 22.5049251,9.88859782 22.4565274,9.90843507 C22.4282954,9.93025604 22.4000635,9.95009329 22.3677984,9.96794682 C21.6640158,10.370643 20.9884652,10.868558 20.3653454,11.445822 C18.2015668,13.4474007 16.7859354,16.2008112 16.160799,19.6247208 C16.0720699,20.1047823 15.6485905,20.4420155 15.1706636,20.4420155 C15.1121831,20.4420155 15.0496695,20.4360644 14.991189,20.4261457 C14.4426822,20.3289432 14.0776832,19.8131747 14.1764951,19.2755852 C14.8782611,15.4231909 16.4955494,12.3008076 18.981979,9.99968642 C19.7160101,9.32125243 20.5085218,8.73605351 21.3433813,8.25797575 C21.349431,8.2540083 21.3554807,8.25004085 21.363547,8.2460734 L21.363547,8.2460734 C21.3716133,8.24012223 21.5450382,8.14490342 21.5551211,8.14093597 C22.1520255,7.8195725 22.6017204,7.63706979 22.7509465,7.59937901 Z M16.8175955,7.13776617 C17.2935058,6.86004465 17.914609,7.01477521 18.1969287,7.48888552 C18.4812649,7.96299583 18.3199394,8.57001572 17.839996,8.84773724 C17.8097475,8.86559076 14.8232088,10.7064877 14.0004486,15.2194624 C13.9117196,15.6995239 13.4882401,16.0367571 13.0103132,16.0367571 C12.9518327,16.0367571 12.8893191,16.030806 12.8308386,16.0208873 C12.2823318,15.9236848 11.9173328,15.4079163 12.0161447,14.8703268 C12.814706,10.4902616 15.5048091,7.8975329 16.8175955,7.13776617 Z" id="Fill-9" fill="#E20101"></path>
    </g>
</svg>