<?xml version="1.0" encoding="UTF-8"?>
<svg width="64px" height="64px" viewBox="0 0 64 64" version="1.1" xmlns="http://www.w3.org/2000/svg" xmlns:xlink="http://www.w3.org/1999/xlink">

    <title>03 Icon/64/Container-Pin</title>
    
    <g id="03-Icon/64/Container-Pin" stroke="none" stroke-width="1" fill="none" fill-rule="evenodd">
        <path d="M28.3744414,7 C31.6148579,7 34.2505842,9.6514152 34.2505842,12.9103626 C34.2505842,13.2000468 34.2063876,13.4776608 34.1641999,13.7572865 L34.1641999,13.7572865 L47.8209586,21.8362573 L50.000656,21.8362573 C51.6540117,21.8362573 53,23.1901287 53,24.8538012 L53,24.8538012 L53,28.1851696 C53,28.7424094 52.5540158,29.1910175 52.001558,29.1910175 C51.4470911,29.1910175 51.001107,28.7424094 51.001107,28.1851696 L51.001107,28.1851696 L51.001107,24.8538012 C51.001107,24.385076 50.6716412,24.0048655 50.2377106,23.8962339 C50.1593621,23.876117 50.0850314,23.8479532 50.000656,23.8479532 L50.000656,23.8479532 L6.99934402,23.8479532 C6.7321553,23.8479532 6.49108278,23.9585965 6.31027838,24.1316023 C6.12143824,24.3146667 6.00090197,24.570152 6.00090197,24.8538012 L6.00090197,24.8538012 L6.00090197,46.9824561 C6.00090197,47.5376842 6.44889508,47.9883041 6.99934402,47.9883041 L6.99934402,47.9883041 L34.7508097,47.9883041 C35.3032676,47.9883041 35.7512607,48.438924 35.7512607,48.994152 C35.7512607,49.5513918 35.3032676,50 34.7508097,50 L34.7508097,50 L6.99934402,50 C5.34598827,50 4,48.6461287 4,46.9824561 L4,46.9824561 L4,24.8538012 C4,23.1901287 5.34598827,21.8362573 6.99934402,21.8362573 L6.99934402,21.8362573 L8.78930753,21.8362573 L22.6228527,14.1053099 C22.5424952,13.7190643 22.5003075,13.3207485 22.5003075,12.9103626 C22.5003075,9.6514152 25.1360338,7 28.3744414,7 Z M28.9176582,30.8892912 C29.470116,30.8892912 29.9181091,31.3399111 29.9181091,31.8951392 L29.9181091,31.8951392 L29.9181091,39.9419228 C29.9181091,40.4971509 29.470116,40.9477708 28.9176582,40.9477708 C28.3652003,40.9477708 27.9172072,40.4971509 27.9172072,39.9419228 L27.9172072,39.9419228 L27.9172072,31.8951392 C27.9172072,31.3399111 28.3652003,30.8892912 28.9176582,30.8892912 Z M36.2500799,30.8892912 C36.8025378,30.8892912 37.2505309,31.3399111 37.2505309,31.8951392 L37.2505309,31.8951392 L37.2505309,39.9419228 C37.2505309,40.4971509 36.8025378,40.9477708 36.2500799,40.9477708 C35.6976221,40.9477708 35.249629,40.4971509 35.249629,39.9419228 L35.249629,39.9419228 L35.249629,31.8951392 C35.249629,31.3399111 35.6976221,30.8892912 36.2500799,30.8892912 Z M14.2508056,30.8892912 C14.8032635,30.8892912 15.2512566,31.3399111 15.2512566,31.8951392 L15.2512566,31.8951392 L15.2512566,39.9419228 C15.2512566,40.4971509 14.8032635,40.9477708 14.2508056,40.9477708 C13.6983478,40.9477708 13.2503546,40.4971509 13.2503546,39.9419228 L13.2503546,39.9419228 L13.2503546,31.8951392 C13.2503546,31.3399111 13.6983478,30.8892912 14.2508056,30.8892912 Z M21.5842319,30.8892912 C22.1346808,30.8892912 22.5826739,31.3399111 22.5826739,31.8951392 L22.5826739,31.8951392 L22.5826739,39.9419228 C22.5826739,40.4971509 22.1346808,40.9477708 21.5842319,40.9477708 C21.0297651,40.9477708 20.5837809,40.4971509 20.5837809,39.9419228 L20.5837809,39.9419228 L20.5837809,31.8951392 C20.5837809,31.3399111 21.0297651,30.8892912 21.5842319,30.8892912 Z M33.517322,15.7066199 C32.5228978,17.5493333 30.6043623,18.8187135 28.3744414,18.8187135 C26.25903,18.8187135 24.4168341,17.6780819 23.3822312,15.9842339 L23.3822312,15.9842339 L12.9116477,21.8362573 L43.8794227,21.8362573 Z M28.3744414,9.01169591 C26.2389406,9.01169591 24.5012095,10.7598596 24.5012095,12.9103626 C24.5012095,12.9566316 24.5112542,13.0029006 24.5132631,13.0491696 C24.5413882,13.7693567 24.7563446,14.4412632 25.1219712,15.0125848 C25.8130458,16.0888421 27.0103727,16.8070175 28.3744414,16.8070175 C29.8711,16.8070175 31.1568201,15.9419883 31.8016891,14.6907135 C32.0789226,14.1556023 32.2496823,13.5541053 32.2496823,12.9103626 C32.2496823,12.8721404 32.2396376,12.8399532 32.2396376,12.801731 C32.1793694,10.7035322 30.4757903,9.01169591 28.3744414,9.01169591 Z" id="Fill-16" fill="#04246A"></path>
        <path d="M49,55.7716346 C46.9128926,54.1195367 40.0007305,48.1719843 40.0007305,41.8173077 C40.0007305,36.9377185 44.0383492,32.9667832 49,32.9667832 C53.9616508,32.9667832 57.9992695,36.9377185 57.9992695,41.8173077 C57.9992695,48.1719843 51.0871074,54.1195367 49,55.7716346 M49,31 C55.0644631,31 60,35.854021 60,41.8173077 C60,50.2666084 50.0124178,57.5083042 49.5865595,57.8111888 C49.4138057,57.9370629 49.2069028,58 49,58 C48.7930972,58 48.5861943,57.9370629 48.4134405,57.8111888 C47.9875822,57.5083042 38,50.2666084 38,41.8173077 C38,35.854021 42.9355369,31 49,31 Z M49,37.2573208 C46.6959459,37.2573208 44.8177502,39.1041302 44.8177502,41.3718313 C44.8177502,43.6395323 46.6959459,45.484375 49,45.484375 C51.3060628,45.484375 53.1822498,43.6395323 53.1822498,41.3718313 C53.1822498,39.1041302 51.3060628,37.2573208 49,37.2573208 Z M49,39.224104 C50.2032505,39.224104 51.1815194,40.1897946 51.1815194,41.3718313 C51.1815194,42.5558348 50.2032505,43.5175918 49,43.5175918 C47.7967495,43.5175918 46.8184806,42.5558348 46.8184806,41.3718313 C46.8184806,40.1897946 47.7967495,39.224104 49,39.224104 Z" id="Fill-3" fill="#E20101"></path>
    </g>
</svg>