<?xml version="1.0" encoding="UTF-8"?>
<svg width="64px" height="64px" viewBox="0 0 64 64" version="1.1" xmlns="http://www.w3.org/2000/svg" xmlns:xlink="http://www.w3.org/1999/xlink">

    <title>03 Icon/64/Route</title>
    
    <g id="03-Icon/64/Route" stroke="none" stroke-width="1" fill="none" fill-rule="evenodd">
        <path d="M46.3338386,57.9981919 L37.931451,57.9981919 L16.9722393,57.9981919 C12.5710834,57.9981919 8.98967265,54.3849283 8.98967265,49.944918 C8.98967265,45.5049077 12.5710834,41.8916441 16.9722393,41.8916441 L23.6396324,41.8916441 C27.1653323,41.8916441 30.0324506,39.0010332 30.0324506,35.4438202 C30.0324506,31.8906109 27.1653323,29 23.6396324,29 L17.6507177,29 C16.5325217,30.0589565 15.7008385,30.7115459 15.5894168,30.7956219 C15.412336,30.9317448 15.2034203,30.9998063 14.992515,30.9998063 C14.9945047,30.9998063 14.9964944,31.0018081 14.9984841,31.0018081 L23.6396324,31.0018081 C26.067033,31.0018081 28.042778,32.9956089 28.042778,35.4438202 C28.042778,37.8960351 26.067033,39.889836 23.6396324,39.889836 L16.9722393,39.889836 C11.4727841,39.889836 7,44.3999096 7,49.944918 C7,55.4879246 11.4727841,60 16.9722393,60 L36.9366147,60 L49,60 C48.787105,60 48.5742101,59.9319385 48.3971292,59.7938138 C48.2857075,59.7097378 47.4520347,59.0571484 46.3338386,57.9981919" id="Fill-11" fill="#04246A"></path>
        <path d="M7.01149846,14.7598622 C7.01149846,9.93654514 10.7327706,6.01307058 15.3069181,6.01307058 C19.8810656,6.01307058 23.6023377,9.93654514 23.6023377,14.7598622 C23.6023377,20.9903157 17.316405,26.8241942 15.3069181,28.5312781 C13.2954196,26.8262073 7.01149846,21.0023941 7.01149846,14.7598622 M48.6930819,33.1637561 C50.9177992,33.1637561 52.9675161,33.9206706 54.6531518,35.1768267 C57.2741343,37.1295051 59,40.3121697 59,43.9216053 C59,49.9245817 54.2407947,55.2994802 51.3884898,57.9869294 C50.2560162,59.0518438 49.4152099,59.7081048 49.3025659,59.7926537 C49.2844625,59.8067452 49.262336,59.800706 49.2442325,59.8127844 C49.0833126,59.9194772 48.9022777,60 48.6930819,60 C48.4778516,60 48.2646327,59.9295425 48.0835979,59.7926537 C47.970954,59.7081048 47.1301476,59.0518438 45.997674,57.9869294 C43.1453692,55.2994802 38.3861638,49.9245817 38.3861638,43.9216053 C38.3861638,40.3121697 40.1120295,37.1295051 42.733012,35.1768267 C44.4186477,33.9206706 46.4683646,33.1637561 48.6930819,33.1637561 Z M48.6930819,35.1768267 C44.1189344,35.1768267 40.3976623,39.1003012 40.3976623,43.9216053 C40.3976623,50.1540718 46.6815835,55.9859373 48.6930819,57.6930211 C50.7045804,55.9859373 56.9885015,50.1540718 56.9885015,43.9216053 C56.9885015,39.1003012 53.2672294,35.1768267 48.6930819,35.1768267 Z M48.6930819,38.4820873 C51.3462484,38.4820873 53.5045862,40.7226348 53.5045862,43.4805415 C53.5045862,46.2344221 51.3462484,48.4749696 48.6930819,48.4749696 C46.0399154,48.4749696 43.8815776,46.2344221 43.8815776,43.4805415 C43.8815776,40.7226348 46.0399154,38.4820873 48.6930819,38.4820873 Z M48.6930819,40.4951578 C47.1502626,40.4951578 45.8930761,41.8338498 45.8930761,43.4805415 C45.8930761,45.1232071 47.1502626,46.461899 48.6930819,46.461899 C50.2359012,46.461899 51.4930878,45.1232071 51.4930878,43.4805415 C51.4930878,41.8338498 50.2359012,40.4951578 48.6930819,40.4951578 Z M15.3069181,4 C17.5316354,4 19.5813523,4.75691454 21.266988,6.01307058 C23.8879705,7.96574904 25.6138362,11.1484136 25.6138362,14.7598622 C25.6138362,20.7608256 20.8546308,26.1357241 18.0003145,28.8231733 C16.8698524,29.8901007 16.029046,30.5463617 15.9164021,30.6309107 C15.7373788,30.7657864 15.5241599,30.8342308 15.3109411,30.8342308 L15.3109411,30.8342308 L15.3069181,30.8362439 L15.2888146,30.8302047 C15.1097912,30.8261785 14.9388139,30.7577341 14.781917,30.6590937 C14.7557675,30.6429891 14.721572,30.6510414 14.6974341,30.6309107 C14.5847901,30.5463617 13.7439838,29.8901007 12.6135217,28.8231733 C9.75920535,26.1357241 5,20.7608256 5,14.7598622 C5,11.1484136 6.72586568,7.96574904 9.34684816,6.01307058 C11.0344954,4.75691454 13.0822008,4 15.3069181,4 Z M15.3077227,9.32114946 C12.6545562,9.32114946 10.4962184,11.561697 10.4962184,14.3155776 C10.4962184,17.0714712 12.6545562,19.3120188 15.3077227,19.3120188 C17.9588777,19.3120188 20.1172155,17.0714712 20.1172155,14.3155776 C20.1172155,11.561697 17.9588777,9.32114946 15.3077227,9.32114946 Z M15.3077227,11.33422 C16.850542,11.33422 18.105717,12.672912 18.105717,14.3155776 C18.105717,15.9602562 16.850542,17.2989482 15.3077227,17.2989482 C13.7649034,17.2989482 12.5077168,15.9602562 12.5077168,14.3155776 C12.5077168,12.672912 13.7649034,11.33422 15.3077227,11.33422 Z" id="Fill-8" fill="#E20101"></path>
    </g>
</svg>